<?xml version="1.0" encoding="iso-8859-1"?>
<!-- Generator: Adobe Illustrator 19.0.0, SVG Export Plug-In . SVG Version: 6.00 Build 0)  -->
<svg version="1.1" id="Layer_1" xmlns="http://www.w3.org/2000/svg" xmlns:xlink="http://www.w3.org/1999/xlink" x="0px" y="0px"
	 viewBox="0 0 330 330" style="enable-background:new 0 0 330 330;" xml:space="preserve">
<path id="XMLID_18_" d="M315,150l-247.5,0.001V127.5c0-6.067-3.655-11.537-9.26-13.858c-5.607-2.322-12.058-1.038-16.347,3.252
	l-37.5,37.5c-5.858,5.858-5.858,15.355,0,21.213l37.5,37.5c2.87,2.87,6.706,4.394,10.61,4.394c1.932,0,3.881-0.374,5.737-1.142
	c5.605-2.322,9.26-7.791,9.26-13.858v-22.499L315,180c8.284,0,15-6.716,15-15C330,156.716,323.284,150,315,150z"/>
<g>
</g>
<g>
</g>
<g>
</g>
<g>
</g>
<g>
</g>
<g>
</g>
<g>
</g>
<g>
</g>
<g>
</g>
<g>
</g>
<g>
</g>
<g>
</g>
<g>
</g>
<g>
</g>
<g>
</g>
</svg>
