<?xml version="1.0" encoding="iso-8859-1"?>
<!-- Generator: Adobe Illustrator 16.0.0, SVG Export Plug-In . SVG Version: 6.00 Build 0)  -->
<!DOCTYPE svg PUBLIC "-//W3C//DTD SVG 1.1//EN" "http://www.w3.org/Graphics/SVG/1.1/DTD/svg11.dtd">
<svg version="1.1" id="Capa_1" xmlns="http://www.w3.org/2000/svg" xmlns:xlink="http://www.w3.org/1999/xlink" x="0px" y="0px"
	 width="583.002px" height="583.001px" viewBox="0 0 583.002 583.001" style="enable-background:new 0 0 583.002 583.001;"
	 xml:space="preserve">
<g>
	<path d="M86.671,190.214C55.459,211.023-14.921,255.086,2.827,302.823c19.584,52.632,90.576,94.86,134.64,124.848
		c25.092,17.137,111.996,78.948,141.984,41.616c1.836-1.836,2.448-4.896,1.836-7.344c12.853-25.092,4.896-64.872,4.896-91.8
		c0-4.896,0-9.792,0-14.688c91.188,0.612,189.108,30.601,277.236,4.284c5.508-1.836,7.956-5.508,8.568-9.792
		c0.612,0,1.224-0.612,1.836-0.612c13.464-7.956,7.956-39.168,8.568-52.02c0-23.256,0.611-47.736-4.284-70.992
		c-1.225-5.508-4.896-8.568-9.181-9.18c-1.836-1.837-4.896-3.061-8.567-3.061c-93.024,1.224-184.212,12.24-277.236,6.732
		c0-29.988,1.224-59.364,6.12-88.74c0.612-3.672-0.612-6.732-1.836-9.18c6.12-7.345-0.612-22.645-14.076-20.809
		C207.847,110.042,140.527,154.107,86.671,190.214z"/>
</g>
<g>
</g>
<g>
</g>
<g>
</g>
<g>
</g>
<g>
</g>
<g>
</g>
<g>
</g>
<g>
</g>
<g>
</g>
<g>
</g>
<g>
</g>
<g>
</g>
<g>
</g>
<g>
</g>
<g>
</g>
</svg>
